# xmcd
#
# Track frame offsets:
#	150
#	17311
#	33150
#	53751
#	73752
#	85482
#	103441
#	121987
#	139175
#	154920
#	172760
#	191133
#	203738
#
# Disc length: 2894 seconds
#
# Revision: 0
# Processed by: cddbd v1.5.2PL0 Copyright (c) Steve Scherf et al.
# Submitted via: EasyCDDAExtractor 11.0.2.1
#
DISCID=af0b4c0d
DTITLE=Luisa Värk - Tunnete Allee
DYEAR=2008
DGENRE=Pop-Folk
TTITLE0=Kui Sa Teaks
TTITLE1=Lahkumise Päev
TTITLE2=Lihtne Viis
TTITLE3=Miks Möödunule Mõtleme
TTITLE4=Kaotatud Ja Leitud
TTITLE5=Kivist Südamed
TTITLE6=Tühjus Toas Ja Südames
TTITLE7=Sangria Vein Ja Margariita
TTITLE8=Võõras
TTITLE9=Nüüd Minema Ma Pean
TTITLE10=Surnud Ring
TTITLE11=God Inside Your Soul
TTITLE12=God Inside Your Soul(Margus Vaher,Luisa Värk)
EXTD=
EXTT0=
EXTT1=
EXTT2=
EXTT3=
EXTT4=
EXTT5=
EXTT6=
EXTT7=
EXTT8=
EXTT9=
EXTT10=
EXTT11=
EXTT12=
PLAYORDER=
